<svg
  stroke="currentColor"
  fill="currentColor"
  stroke-width="0"
  viewBox="0 0 16 16"
  height="200px"
  width="200px"
  xmlns="http://www.w3.org/2000/svg"
>
  <path
    fill-rule="evenodd"
    clip-rule="evenodd"
    d="M1.5 14H15v-1H2V0H1v13.5l.5.5zM3 11.5v-8l.5-.5h2l.5.5v8l-.5.5h-2l-.5-.5zm2-.5V4H4v7h1zm6-9.5v10l.5.5h2l.5-.5v-10l-.5-.5h-2l-.5.5zm2 .5v9h-1V2h1zm-6 9.5v-6l.5-.5h2l.5.5v6l-.5.5h-2l-.5-.5zm2-.5V6H8v5h1z"
    fill="#ff8b02"
    stroke="#4e4533"
    stroke-width="0.1"
  ></path>
</svg>